<svg width="649" height="657" viewBox="0 0 649 657" fill="none" xmlns="http://www.w3.org/2000/svg">
<path d="M396.322 381.624C387.154 367.077 377.824 352.327 365.428 340.776C353.033 329.195 336.976 321.014 320.512 322.08C306.055 323.03 292.656 331.039 282.077 341.496C271.499 351.953 263.281 364.83 255.198 377.591C233.336 412.045 211.447 446.498 189.586 480.98C179.197 497.343 168.538 514.426 165.663 533.928C162.191 557.492 171.549 581.489 188.148 597.16C205.507 613.551 233.635 612.226 254.764 607.732C277.928 602.806 300.576 593.53 324.2 593.559C344.435 593.559 363.991 600.415 383.683 605.399C403.347 610.354 424.477 613.407 443.463 606.033C467.034 596.901 483.959 570.945 483.498 544.299C483.064 519.985 457.133 478.042 457.133 478.042C457.133 478.042 416.589 413.766 396.322 381.624Z" fill="#3DDC84"/>
</svg>
